<?xml version="1.0" encoding="iso-8859-1"?>
<!-- Generator: Adobe Illustrator 19.0.0, SVG Export Plug-In . SVG Version: 6.00 Build 0)  -->
<svg version="1.1" id="Capa_1" xmlns="http://www.w3.org/2000/svg" xmlns:xlink="http://www.w3.org/1999/xlink" x="0px" y="0px"
	 viewBox="0 0 512 512" style="enable-background:new 0 0 512 512;" xml:space="preserve">
<g>
	<g>
		<path d="M447.805,181.582C468.512,162.122,481,134.602,481,105C481,47.103,433.897,0,376,0h-30h-0.001H286h-60H76
			c-8.284,0-15,6.716-15,15c0,11.826,1.534,23.299,4.403,34.237C43.938,66.168,31,92.323,31,120
			c0,24.659,10.098,47.431,26.675,63.902C41.97,190.933,31,206.71,31,225c0,36.417,26.094,66.842,60.564,73.592
			c4.769,58.207,39.872,107.957,89.436,133.356V497c0,8.284,6.716,15,15,15h120c8.284,0,15-6.716,15-15v-65.052
			c49.564-25.4,84.668-75.15,89.437-133.356C454.906,291.842,481,261.417,481,225C481,204.272,466.908,186.782,447.805,181.582z
			 M212.227,30c5.885,36.333,32.574,68.238,66.821,90H196c-52.805,0-96.631-39.183-103.932-90H212.227z M226,180H122.099
			c2.215-15.321,7.797-29.991,16.335-42.907C155.906,145.364,175.421,150,196,150h184.879c4.494,9.476,7.538,19.597,9.034,30H286
			c-8.284,0-15,6.716-15,15v15h-30v-15C241,186.716,234.284,180,226,180z M211,210v15c0,24.813-20.187,45-45,45s-45-20.187-45-45
			v-15H211z M91,225v42.42c-17.459-6.192-30-22.865-30-42.42c0-8.271,6.729-15,15-15h15V225z M92.822,172.976
			C73.693,162.767,61,142.575,61,120c0-15.332,5.96-29.962,16.187-40.952c8.892,16.43,21.092,30.817,35.703,42.264
			C102.703,136.958,95.87,154.574,92.822,172.976z M301,482h-90v-38.238c14.31,4.062,29.406,6.238,45,6.238s30.69-2.176,45-6.238
			V482z M391,285c0,74.439-60.561,135-135,135s-135-60.561-135-135v-0.041C133.544,294.397,149.129,300,166,300
			c16.871,0,32.456-5.603,45-15.041V285c0,24.813,20.187,45,45,45c8.284,0,15-6.716,15-15s-6.716-15-15-15c-8.271,0-15-6.729-15-15
			v-45h31.509c6.968,34.192,37.272,60,73.491,60c16.871,0,32.456-5.603,45-15.041V285z M391,225c0,24.813-20.187,45-45,45
			s-45-20.187-45-45v-15h90V225z M418.074,167.091c-3.218-15.269-8.14-26.89-14.99-39.326c-2.974-5.16-8.101-7.765-13.138-7.765H376
			c-29.362,0-64.195-12.333-90.905-32.186C262.55,71.057,247.741,50.606,242.812,30H286h59.999H346h30c41.355,0,75,33.645,75,75
			C451,130.236,438.3,153.354,418.074,167.091z M421,267.42V225v-15h15c8.271,0,15,6.729,15,15
			C451,244.555,438.459,261.228,421,267.42z"/>
	</g>
</g>
<g>
	<g>
		<path d="M330.217,338.004c-5.857-5.858-15.355-5.858-21.213,0C294.82,352.188,275.996,360,256,360c-8.284,0-15,6.716-15,15
			s6.716,15,15,15c28.009,0,54.367-10.932,74.217-30.783C336.075,353.359,336.075,343.862,330.217,338.004z"/>
	</g>
</g>
<g>
</g>
<g>
</g>
<g>
</g>
<g>
</g>
<g>
</g>
<g>
</g>
<g>
</g>
<g>
</g>
<g>
</g>
<g>
</g>
<g>
</g>
<g>
</g>
<g>
</g>
<g>
</g>
<g>
</g>
</svg>
